<?xml version="1.0" encoding="utf-8"?>
<!-- Generator: Adobe Illustrator 24.3.0, SVG Export Plug-In . SVG Version: 6.00 Build 0)  -->
<svg version="1.1" id="Calque_1" xmlns:serif="http://www.serif.com/"
	 xmlns="http://www.w3.org/2000/svg" xmlns:xlink="http://www.w3.org/1999/xlink" x="0px" y="0px" viewBox="0 0 500 133.2"
	 style="enable-background:new 0 0 500 133.2;" xml:space="preserve">
<style type="text/css">
	.st0{fill:#5C565C;}
	.st1{fill:#E3166A;}
</style>
<g>
	<g>
		<g transform="matrix(1,0,0,1,7.83334,132.23)">
			<path class="st0" d="M-7.8-26.4c0-1.9,1.3-2.9,3.2-2.9c5.2,0,2.6,10,13.2,10c5.2,0,9.3-2.6,9.3-7.1c0-11.9-24.8-3.9-24.8-20
				c0-6.1,6.4-10.9,15.1-10.9c10,0,15.8,5.2,15.8,9.7c0,1.6-1.3,2.9-2.9,2.9c-4.5,0-2.6-10-12.6-10c-4.8,0-8.4,2.9-8.4,7.1
				c0,11.6,24.8,3.9,24.8,20c0,6.1-6.4,10.9-16.4,10.9C-2.4-17.1-7.8-22.5-7.8-26.4z"/>
		</g>
		<g transform="matrix(1,0,0,1,7.83334,132.23)">
			<path class="st0" d="M30.2-37.7c0-11.3,8.7-19.6,19.6-19.6c12.2,0,20.6,9.3,20.6,20.6s-7.7,20-19,20
				C38.2-17.1,30.2-26.7,30.2-37.7z M63.3-34.5c0-11.3-6.1-20.3-14.2-20.3c-6.8,0-11.6,5.8-11.6,14.8c0,10.3,6.1,20.3,14.8,20.3
				C58.5-19.6,63.3-25.4,63.3-34.5z"/>
		</g>
		<g transform="matrix(1,0,0,1,7.83334,132.23)">
			<path class="st0" d="M116.8-37.7c0,11.9-8.4,20.9-18.7,20.9c-5.2,0-9-2.3-11.9-5.5v17.4c0,2.9,3.2,2.9,3.2,4.5V0
				c0,0.6-0.6,1-1.6,1h-10c-1,0-1.6-0.3-1.6-1v-0.3c0-1.6,2.9-1.6,2.9-4.5v-42.8c0-2.9-3.2-2.9-3.2-4.5v-0.3c0-0.6,0.6-1.3,1.3-1.6
				L83-57c1.6-0.6,2.3,0,2.3,1.3v5.5c2.6-4.2,7.4-6.8,12.9-6.8C108.1-57.6,116.8-49.9,116.8-37.7z M109.4-35.7
				c0-11.3-5.5-19-13.2-19c-5.2,0-9.3,4.2-10,9v13.8c0,6.4,5.5,12.6,10.9,12.6C104.5-19.6,109.4-25.8,109.4-35.7z"/>
		</g>
		<g transform="matrix(1,0,0,1,7.83334,132.23)">
			<path class="st0" d="M163.4-19L163.4-19c0,1-0.6,1.3-1.6,1.3h-9.7c-1,0-1.6-0.3-1.6-1V-19c0-1.6,3.2-1.6,2.9-4.5l-1-16.4
				c-0.3-9.7-4.5-14.2-10-14.2c-6.1,0-10,4.8-10,11.3v19.6c0,2.9,3.2,2.9,3.2,4.5v0.3c0,0.6-0.6,1-1.6,1h-10c-1,0-1.6-0.3-1.6-1
				v-0.3c0-1.6,2.9-1.6,2.9-4.5v-45.7c0-3.2-3.2-3.2-3.2-4.5v-0.3c0-0.6,0.3-1,1.3-1.3l6.8-2.9c1.6-0.6,2.3-0.3,2.3,1v26.1
				c2.6-3.9,6.8-6.4,12.2-6.4c8,0,14.5,5.5,15.5,17.7l1,16.4C160.9-20.6,163.4-20.6,163.4-19z"/>
		</g>
		<g transform="matrix(1,0,0,1,7.83334,132.23)">
			<path class="st0" d="M169.2-18.7L169.2-18.7c0-1.9,2.9-1.9,2.9-4.8v-24.1c0-3.2-2.9-3.9-2.9-5.2v-0.3c0-0.6,0.6-1,1.3-1.3
				l6.1-3.2c1.6-1,2.6,0,2.6,1.3v32.5c0,2.9,3.2,2.9,3.2,4.5v0.3c0,0.6-0.6,1-1.6,1h-10C169.6-17.7,169.2-18,169.2-18.7z
				 M169.9-69.5c0-2.9,2.3-5.2,5.5-5.2s5.2,2.3,5.2,5.2s-2.3,5.2-5.2,5.2C172.1-64.4,169.9-66.3,169.9-69.5z"/>
		</g>
		<g transform="matrix(1,0,0,1,7.83334,132.23)">
			<path class="st0" d="M223.3-28.7c-1,4.8-6.4,11.6-16.4,11.6c-10.3,0-18.7-8-18.7-20.6c0-11.3,8.4-20,19-20
				c9.7,0,15.1,6.4,15.1,11.9c0,2.6-1.3,3.9-3.9,4.8L196-33.5c1.9,6.8,6.8,11.3,13.2,11.3c6.1,0,9.7-3.2,11.6-7.1
				C221.7-30.3,223.6-29.9,223.3-28.7z M195-40.2c0,1.6,0,2.9,0.3,4.2l18-6.4c1.3-0.6,1.9-1.6,1.9-2.9c0-3.5-3.9-9.7-9.3-9.7
				C199.5-55.1,195-48.3,195-40.2z"/>
		</g>
	</g>
	<g>
		<g transform="matrix(1,0,0,1,7.83334,132.23)">
			<path class="st1" d="M246.8-10c-7.4,0-13.2-3.9-13.2-13.2v-10c0-7.1-2.3-9.3-4.5-9.3c-2.3,0-2.6-4.2,0-4.2c2.3,0,4.5-2.6,4.5-8.7
				v-11.9c0-8.7,5.8-12.9,13.5-12.9c1.9,0,2.3,3.2,0,3.2c-4.2,0-6.8,3.2-6.8,9.3v11.9c0,8-3.9,10.6-6.1,11.3
				c2.3,0.6,6.1,3.2,6.1,11.9v10c0,6.4,2.6,9.7,6.8,9.7C248.7-13.2,248.7-10,246.8-10z"/>
		</g>
		<g transform="matrix(1,0,0,1,7.83334,132.23)">
			<path class="st1" d="M288.3-42.8c-2.3,0-4.8,2.6-4.8,9.3v10c0,9.3-5.8,13.2-13.2,13.2c-1.9,0-1.9-3.2,0.3-3.2
				c4.2,0,6.8-3.2,6.8-9.7v-10c0-9,3.9-11.3,6.1-11.9c-2.3-0.6-6.1-3.2-6.1-11.3v-11.9c0-6.4-2.9-9.3-6.8-9.3c-2.3,0-1.9-3.2,0-3.2
				c7.7,0,13.5,4.2,13.5,12.9V-56c0,6.4,2.6,8.7,4.8,8.7C290.6-47,290.3-42.8,288.3-42.8z"/>
		</g>
	</g>
	<g>
		<g transform="matrix(1,0,0,1,7.83334,132.23)">
			<path class="st0" d="M322.1-51.2c0,2.3-1,3.9-3.2,3.9c-4.2,0-2.3-5.8-7.1-5.8c-4.5,0-6.8,5.2-6.8,11.3v18.4
				c0,2.9,3.5,2.9,3.5,4.5v0.3c0,0.6-0.6,1-1.6,1h-10c-1,0-1.6-0.3-1.6-1V-19c0-1.6,2.9-1.6,2.9-4.5v-24.8c0-3.2-3.2-3.2-3.2-4.8
				v-0.3c0-0.6,0.6-1,1.3-1.6l6.1-2.9c1.6-0.6,2.3,0,2.3,1.3v6.4c1.9-5.2,5.5-8,10.6-8C319.6-57.6,322.1-54.7,322.1-51.2z"/>
		</g>
		<g transform="matrix(1,0,0,1,7.83334,132.23)">
			<path class="st0" d="M324.4-37.7c0-11.3,8.7-19.6,19.6-19.6c12.2,0,20.6,9.3,20.6,20.6s-7.7,20-19,20
				C332.5-17.1,324.4-26.7,324.4-37.7z M357.6-34.5c0-11.3-6.1-20.3-14.2-20.3c-6.8,0-11.6,5.8-11.6,14.8c0,10.3,6.1,20.3,14.8,20.3
				C352.7-19.6,357.6-25.4,357.6-34.5z"/>
		</g>
		<g transform="matrix(1,0,0,1,7.83334,132.23)">
			<path class="st0" d="M369.8-37.3c0-12.2,9-20,20-20c8.7,0,15.8,5.5,15.8,10c0,1.6-1,2.9-3.2,2.9c-4.8-0.3-4.5-10.3-13.8-10.3
				c-6.8,0-11.6,6.1-11.6,14.2c0,11.3,6.4,18.7,15.5,18.7c5.8,0,9.3-3.5,11.3-7.7c0.6-1.3,2.6-1,2.3,0.6
				c-1.3,5.8-6.4,12.2-15.8,12.2C378.8-17.1,369.8-25.8,369.8-37.3z"/>
		</g>
		<g transform="matrix(1,0,0,1,7.83334,132.23)">
			<path class="st0" d="M452.2-19L452.2-19c0,1-0.6,1.3-1.6,1.3h-9.7c-1,0-1.6-0.3-1.6-1V-19c0-1.6,3.2-1.6,2.9-4.5l-1-16.4
				c-0.3-9.7-4.5-14.2-10-14.2c-6.1,0-10,4.8-10,11.3v19.6c0,2.9,3.2,2.9,3.2,4.5v0.3c0,0.6-0.6,1-1.6,1h-10c-1,0-1.6-0.3-1.6-1
				v-0.3c0-1.6,2.9-1.6,2.9-4.5v-45.7c0-3.2-3.2-3.2-3.2-4.5v-0.3c0-0.6,0.3-1,1.3-1.3l6.8-2.9c1.6-0.6,2.3-0.3,2.3,1L421-50.9
				c2.6-3.9,6.8-6.4,12.2-6.4c8,0,14.5,5.5,15.5,17.7l1,16.4C449.3-20.6,452.2-20.6,452.2-19z"/>
		</g>
		<g transform="matrix(1,0,0,1,7.83334,132.23)">
			<path class="st0" d="M492.1-28.7c-1,4.8-6.4,11.6-16.4,11.6c-10.3,0-18.7-8-18.7-20.6c0-11.6,8.4-20,19-20
				c9.7,0,15.1,6.4,15.1,11.9c0,2.6-1.3,3.9-3.9,4.8l-22.5,7.4c1.9,7.1,6.8,11.3,13.5,11.3c6.1,0,9.7-3.2,11.6-7.1
				C490.5-30.3,492.5-29.9,492.1-28.7z M464.1-40.2c0,1.6,0,2.9,0.3,4.2l18-6.4c1.3-0.6,1.9-1.6,1.9-2.9c0-3.5-3.9-9.7-9.3-9.7
				C468.3-55.1,464.1-48.3,464.1-40.2z"/>
		</g>
	</g>
	<path class="st0" d="M300.9,18.2c-0.6-6.4-4.8-8-7.4-8.4c-3.2-0.3-6.8,0.6-9.7,2.6c0.3-4.2-1-7.7-3.2-10c-2.9-2.9-6.1-3.2-9.3-0.6
		c-2.9,2.3-5.2,7.4-5.5,10.3c0,1.3,0,2.3,0,3.5c0,0.3,0,0.3,0,0.6c-1-1.3-2.3-2.6-3.9-3.9c-1.9-1.6-3.9-2.3-5.8-2.6
		c-2.3-0.3-4.2,0-5.8,1.3c-1.3,1-2.3,2.3-2.9,3.9c-0.3,1.3-0.3,2.9,0.3,4.5c0.6,2.3,1.9,4.2,2.6,5.2c1.9,2.6,4.5,4.8,7.4,6.4
		c-1.6,0.3-3.2,0.6-4.5,1.3c-2.3,1-3.9,2.6-4.8,4.5c-0.6,1.3-0.6,2.6,0,3.9c0.3,1.3,1.6,2.6,2.9,3.5c1.6,1,3.2,1.6,5.2,1.9
		c0.3,0,0.6,0,0.6,0c1.6,0,3.5-0.3,5.5-1.3c0,0.3-0.3,0.3-0.3,0.6c-1,2.3-1.9,4.5-2.6,6.4c-1.9,5.8-3.5,12.2-4.2,19
		c-0.6,6.1-0.6,12.9-0.3,19.3c0.3,3.9,0.6,9,2.3,14.2c1,3.5,2.3,6.4,3.9,9c0.3,1,1.3,1.3,2.3,1.3c0.3,0,1,0,1.3-0.3
		c0.6-0.3,1-1,1.3-1.6s0-1.3-0.3-1.9c-1.3-2.3-2.3-4.8-3.2-7.7c-0.3-1.6-0.6-3.2-1-4.8c0.3,0,0.3-0.3,0.6-0.3
		c4.2-2.9,7.7-6.8,10.6-10.9c2.9-4.5,4.8-9,5.8-14.2c0.3-1.3,0.6-2.9,0.6-4.2c0-1,0-2.3,0-3.2c0-0.6,0-1.3-0.3-1.9
		c-0.3-0.6-0.6-1.6-1.3-1.9c-0.3-0.3-2.3-1-3.5,0.3c-0.3,0.3-1,1-1.3,1.3l-4.5,4.5c-2.6,2.6-5.8,6.8-8.4,11.6c0-2.6,0.3-5.5,0.3-8
		c0.6-6.4,1.9-12.6,3.9-18c0.6-1.9,1.3-3.5,2.3-5.8c0.6-1.9,1.6-3.5,2.6-5.5c0.3-1,1-1.9,1.3-2.9c0,0.3,0.3,0.6,0.3,1
		c2.3,4.2,5.5,7.1,9.3,8.7c1.3,0.6,3.5,1.3,5.5,1.3c0.3,0,0.6,0,1,0c1.9-0.3,3.5-1,4.8-1.9c1.3-1.3,1.9-2.6,1.9-4.5
		c0-1.9-0.6-3.9-1.3-5.5c-1-2.6-2.3-4.5-4.2-6.4c2.6-0.6,5.2-1.6,7.4-3.2C299.9,26.2,301.5,22.4,300.9,18.2z M279,26.9
		c0.3-0.6,0.6-1.3,1-1.9c0.6-1.3,1.3-2.3,1.9-3.5c0.6-1,1.3-1.9,1.9-2.6c1.9-2.3,6.1-4.5,9-4.2c0.6,0,2.6,0.3,2.9,3.9
		c0.3,2.6-0.6,4.5-2.6,6.1c-3.2,2.6-8.4,3.2-11.6,2.9C280.9,27.5,280,27.2,279,26.9z M265.5,38.1c-1,1-2.3,1.6-3.2,2.3
		c-1.6,0.6-2.9,1-4.2,1.3c-1.3,0-2.6-0.3-3.5-1c-0.3-0.3-0.6-0.6-1-1.3c0.3-1,1-1.6,2.3-1.9c1.9-1,4.2-1.3,5.8-1.6h0.6
		c1,0,1.9-0.3,2.9-0.3c0.6,0,1.6,0,2.3,0c0,0,0,0.3-0.3,0.3C267.1,36.5,266.5,37.5,265.5,38.1z M278.7,15.6c-0.3,1.9-1,3.5-1.9,5.2
		c0,0.3-0.3,0.6-0.3,0.6c-0.3,0.6-0.6,1-1,1.6c-0.3,0-0.3-0.3-0.6-0.3s-1,0-1.6,0c-0.3-1.3-1-2.9-1-4.2c-0.3-1-0.3-1.9-0.3-2.9
		c0-1,0-1.9,0-2.9c0-1.9,1.6-5.2,3.5-6.8c0.3-0.3,0.6-0.6,1.3-0.6c0.3,0,1,0.3,1.3,0.6C279,7.5,279.7,11.4,278.7,15.6z M266.1,27.8
		c0,0.3,0,0.6-0.3,1c-1-0.3-2.3-0.6-3.2-1c-2.9-1.3-5.5-3.5-7.4-5.8c-0.6-0.6-1.3-1.9-1.6-3.2c-0.3-1-0.6-1.9-0.3-2.6
		c0-0.3,0.3-0.6,1-1c0.3-0.3,1-0.3,1.6-0.3c0.3,0,0.3,0,0.6,0c1.3,0,2.3,0.6,3.2,1.6c1.6,1.3,3.2,3.2,4.5,4.8l0.3,0.3
		c0.6,1,1.6,2.3,2.3,3.2c0.3,0.3,0.3,1,0.6,1.3C266.5,26.9,266.1,27.2,266.1,27.8z M277.7,33.6c0.3-0.3,0.6-1,1-1.6
		c1.6,0.3,3.2,1,4.2,1.6c2.6,1.6,4.5,3.5,5.5,6.4c0.3,1,1,2.6,1,3.5c0,0.6-0.3,1-0.3,1c-0.6,0.6-1.3,1-2.3,0.6c-1.3,0-2.6-0.3-3.5-1
		c-3.5-1.3-5.5-4.2-6.4-6.1c-0.3-1-1-1.9-1.3-2.9C276.4,34.9,277.4,34.3,277.7,33.6z M262.3,92.9c0-2.6,0.6-5.2,1.9-8
		c2.3-5.5,6.1-10,8.7-12.9l1.6-1.6c0,1-0.3,1.6-0.3,2.6c-0.6,4.2-2.6,8.4-4.8,12.2C267.4,87.7,265.2,90.3,262.3,92.9z"/>
</g>
</svg>
